<svg width="15" height="15" viewBox="0 0 15 15" fill="none" xmlns="http://www.w3.org/2000/svg">
    <path d="M0.940887 1.49097C0.831979 1.58211 0.743098 1.69486 0.679871 1.82202C0.751927 1.93147 0.836512 2.03196 0.931885 2.12183C2.58388 3.77583 4.23687 5.42788 5.89087 7.07788C6.05287 7.23888 6.22389 7.39287 6.41989 7.56787L7.24588 8.31885L6.30988 9.19092C6.08688 9.39692 5.87488 9.59102 5.67188 9.79102C6.93988 9.77002 8.22988 9.76581 9.52188 9.75781C9.71588 9.75781 9.75089 9.75787 9.75189 9.49487C9.75789 8.23587 9.76189 6.97602 9.75189 5.71802C9.54189 5.91802 9.35188 6.11783 9.15988 6.32983L8.33789 7.19897L7.28088 6.12085C6.88788 5.72085 6.52086 5.34299 6.14886 4.96899C4.77687 3.59299 3.40186 2.21892 2.02386 0.846924C1.96667 0.777243 1.89222 0.723766 1.80789 0.691895C1.72431 0.7232 1.65 0.775268 1.59189 0.843018C1.42489 1.00302 1.26188 1.16801 1.09988 1.33301L0.940887 1.49097Z" fill="#53575A" />
    <path d="M0.580873 14.6679H14.3189C14.4209 14.677 14.5236 14.6623 14.6189 14.6249C14.6498 14.5264 14.6623 14.4228 14.6559 14.3198V0.583916C14.6664 0.474677 14.6478 0.364504 14.6019 0.264824C14.5553 0.247502 14.5055 0.240346 14.4559 0.243828C12.1532 0.233828 9.84888 0.233828 7.54288 0.243828C7.38788 0.243828 7.35888 0.243949 7.34888 0.467949C7.33388 0.811949 7.33888 1.15688 7.34888 1.50188C7.33843 1.62821 7.35479 1.75537 7.39688 1.87493C7.4942 1.90341 7.59561 1.91516 7.69687 1.90984H12.9649V12.9738H1.89987V7.74896C1.91011 7.62877 1.89479 7.50756 1.85489 7.39373C1.73614 7.37354 1.61623 7.36101 1.49588 7.35589C1.18988 7.35589 0.885866 7.35089 0.579866 7.35589C0.471669 7.34933 0.363313 7.36554 0.261873 7.40374C0.236912 7.50171 0.225814 7.60274 0.228883 7.70379C0.228883 9.90979 0.228883 12.1166 0.228883 14.3239C0.220432 14.4259 0.23513 14.5285 0.271883 14.624C0.371156 14.6581 0.476014 14.673 0.580873 14.6679Z" fill="#53575A" />
</svg>